<svg width="1250" height="470" fill="none" xmlns="http://www.w3.org/2000/svg">
<path d="M1169.91 369.096C1218.59 369.096 1250 340.418 1250 296.339C1250 259.164 1227.49 204.99400000000003 1229.5900000000001 159.853C1230.11 151.356 1228.02 144.452 1220.16 144.452C1214.41 144.452 1212.31 146.576 1207.08 155.073C1174.1 212.95999999999998 1112.33 286.249 1056.3200000000002 332.452C1052.66 335.63800000000003 1053.18 338.825 1057.37 347.322C1062.6000000000001 358.47499999999997 1064.7 358.47499999999997 1068.8899999999999 355.28799999999995C1114.95 316.52 1157.35 270.31600000000003 1190.33 221.98899999999998C1192.94 245.887 1200.8 274.034 1200.8 303.774C1200.8 325.017 1191.37 342.01099999999997 1177.76 346.791C1175.6699999999998 329.266 1162.06 314.927 1147.93 314.927C1134.84 314.927 1125.94 324.486 1125.94 337.763C1125.94 355.28799999999995 1144.79 369.096 1169.91 369.096ZM1142.69 133.83100000000002C1136.41 139.672 1135.8899999999999 143.39000000000001 1139.03 147.107C1142.69 150.825 1146.88 151.887 1153.6799999999998 147.638C1184.05 127.989 1209.17 98.77969999999999 1209.17 69.5706C1209.17 50.452000000000005 1199.23 38.2373 1183 38.2373C1166.77 38.2373 1153.6799999999998 53.1073 1153.6799999999998 71.69489999999999C1153.6799999999998 83.3785 1159.97 93.4689 1169.91 98.77969999999999C1163.63 114.71199999999999 1153.16 125.333 1142.69 133.83100000000002ZM902.4290000000001 98.77969999999999C907.14 98.77969999999999 908.7099999999999 101.96600000000001 908.7099999999999 106.746C908.7099999999999 140.203 861.5999999999999 215.61599999999999 806.114 272.972C819.2 203.93200000000002 876.78 98.77969999999999 902.4290000000001 98.77969999999999ZM786.223 41.9548C790.934 41.9548 792.504 44.610200000000006 792.504 49.3898C792.504 83.9096 722.885 193.84199999999998 662.688 258.633C671.587 166.757 756.386 41.9548 786.223 41.9548ZM427.659 369.096C452.261 369.096 475.817 352.102 497.278 326.079C498.84799999999996 349.446 514.028 366.44100000000003 539.154 366.44100000000003C562.186 366.44100000000003 584.694 354.75700000000006 614.531 326.61C623.4300000000001 351.571 645.938 369.096 676.298 369.096C705.611 369.096 729.167 359.006 756.9100000000001 334.576C764.761 356.34999999999997 782.0350000000001 369.096 807.161 369.096C835.951 369.096 862.123 353.164 887.249 322.893C886.725 344.66700000000003 897.194 360.599 916.562 360.599C938.5469999999999 360.599 963.672 343.605 987.2280000000001 318.113L922.3199999999999 460.44100000000003C919.703 466.282 921.7959999999999 470.531 927.554 470L966.2900000000001 466.283C973.095 465.751 975.188 463.096 978.329 456.723L1108.67 173.661C1111.29 167.81900000000002 1109.19 163.571 1102.9099999999999 164.102L1064.17 167.81900000000002C1057.89 168.35000000000002 1055.28 171.006 1052.1399999999999 177.379L1036.43 211.36700000000002C1013.92 261.81899999999996 967.86 315.45799999999997 949.0160000000001 315.45799999999997C940.1170000000001 315.45799999999997 940.1170000000001 303.243 947.446 287.31100000000004L1003.45 173.661C1006.5999999999999 167.81900000000002 1003.98 163.571 998.22 164.102L959.4849999999999 167.81900000000002C952.6800000000001 168.35000000000002 950.586 171.006 947.446 177.379L921.7959999999999 229.42399999999998C887.7719999999999 297.932 854.271 333.514 827.5749999999999 333.514C813.9660000000001 333.514 806.114 324.486 804.02 307.49199999999996C883.585 234.734 939.0699999999999 151.356 939.0699999999999 105.684C939.0699999999999 82.3164 927.554 68.5085 908.7099999999999 68.5085C865.2639999999999 68.5085 809.255 138.079 777.324 209.774C761.097 245.887 752.1980000000001 281.469 753.245 309.616C731.784 328.20300000000003 716.08 334.04499999999996 699.33 334.04499999999996C678.392 334.04499999999996 666.3530000000001 318.113 662.688 292.621C753.769 205.52499999999998 823.911 100.90400000000001 823.911 46.203399999999995C823.911 24.9605 812.919 10.6215 793.5509999999999 10.6215C746.4409999999999 10.6215 674.7280000000001 91.8757 633.899 180.034C612.961 225.17499999999998 605.109 266.599 608.773 300.588C585.218 322.36199999999997 571.6080000000001 331.39000000000004 559.045 331.39000000000004C545.4350000000001 331.39000000000004 542.818 319.175 552.764 299.525L579.46 240.57600000000002C582.077 235.266 579.46 230.486 574.225 231.017L534.966 235.797C528.685 236.328 526.591 238.452 522.927 245.356L518.739 253.853C499.895 293.684 470.05899999999997 328.734 450.691 328.734C444.41 328.734 441.269 324.486 441.269 317.05100000000004C441.269 289.435 484.19199999999995 193.31099999999998 539.154 183.751C542.2950000000001 198.09 555.381 210.836 570.561 210.836C586.265 210.836 596.21 200.215 596.21 188C596.21 172.068 580.507 158.791 553.287 158.791C467.96500000000003 158.791 385.26000000000005 258.633 385.26000000000005 323.424C385.783 352.102 401.48699999999997 369.096 427.659 369.096ZM73.2831 396.712C145.519 396.712 181.637 316.52 213.044 236.859C241.311 164.633 268.007 96.1243 319.82800000000003 77.5367C325.06300000000005 75.4124 324.016 66.38419999999999 318.25800000000004 65.8531C224.56 61.6045 180.59 168.88100000000003 146.566 253.322C116.20599999999999 328.20300000000003 96.83840000000001 363.254 69.0955 363.254C47.634 363.254 36.1181 346.26 36.1181 317.05100000000004C36.1181 223.051 159.12900000000002 28.677999999999997 326.633 28.677999999999997C382.64200000000005 28.677999999999997 415.62 49.3898 415.62 83.9096C415.62 131.70600000000002 371.126 167.81900000000002 285.281 188.531C278.99899999999997 190.124 277.429 193.31099999999998 277.429 196.49699999999999C277.429 200.746 280.046 202.87 285.281 206.05599999999998C309.359 218.27100000000002 319.305 237.39000000000001 319.305 260.226C319.305 297.932 292.08500000000004 343.073 260.155 343.073C255.96699999999998 343.073 252.827 342.01099999999997 250.733 340.949C253.874 335.10699999999997 255.444 328.734 255.444 321.831C255.444 305.367 242.881 291.55899999999997 228.748 291.55899999999997C214.615 291.55899999999997 203.622 303.243 203.622 318.113C203.622 347.853 230.84199999999998 368.56499999999994 270.1 368.56499999999994C331.868 368.56499999999994 375.83799999999997 322.893 375.83799999999997 269.785C375.83799999999997 238.452 358.04 213.492 326.10999999999996 199.684C418.237 186.40699999999998 474.246 144.983 474.246 84.9718C474.246 34.5198 423.472 0 344.42999999999995 0C145.519 0 0 166.757 0 306.42900000000003C0 362.192 27.2194 396.712 73.2831 396.712Z" fill="#EC0000"/>

</svg>
