<svg width="288" height="50" viewBox="0 0 288 50" fill="none" xmlns="http://www.w3.org/2000/svg">
<g clip-path="url(#clip0_2061_9102)">
<path d="M208.071 22.5547L198.096 42.5506L188.018 22.5547H186.768L182.938 48.7524H186.541L188.885 31.8827L197.404 48.7524H198.757L207.172 32.0147L209.527 48.7524H213.172L209.31 22.5547H208.071Z" fill="black"/>
<path d="M235.123 22.5547L222.484 48.7524H226.573L230.57 40.2059H240.906L244.943 48.7524H248.939L236.455 22.5547H235.123ZM239.274 36.7955H232.263L235.774 29.4974L239.274 36.7955Z" fill="black"/>
<path d="M275.36 22.5547L265.385 42.3882L255.462 22.778L255.307 22.5547H254.057L250.227 48.7524H253.841L256.174 31.8827L264.693 48.7524H266.046L274.461 32.0147L276.816 48.7524H280.461L276.609 22.5547H275.36Z" fill="black"/>
<path d="M287.722 22.5547H283.664V48.7524H287.722V22.5547Z" fill="black"/>
<path d="M220.636 22.5547H216.578V48.7524H220.636V22.5547Z" fill="black"/>
<path d="M71.3548 5.70413C69.238 4.41505 66.3467 3.65378 62.6913 3.41018C55.4012 2.93312 46.2009 4.88196 35.0695 9.28716C24.8675 13.3472 16.5345 17.925 10.0705 23.0204C9.77105 23.264 9.48192 23.5076 9.20312 23.7614C9.31671 23.6599 9.4303 23.5584 9.55421 23.467C16.0182 18.3716 24.3512 13.7939 34.5532 9.73377C45.6742 5.33872 54.885 3.37973 62.175 3.85679C65.8304 4.10039 68.7217 4.86166 70.8385 6.15074C73.5955 7.84582 74.8656 10.3225 74.6488 13.5908C74.5765 14.7074 74.2667 15.9762 73.7401 17.4276C73.3167 18.6761 72.8417 19.6404 72.3254 20.3509C72.3357 20.3915 72.3564 20.4219 72.377 20.4524C73.0999 19.7419 73.7194 18.5848 74.2667 16.981C74.7933 15.5397 75.1031 14.2608 75.1754 13.1544C75.4025 9.88602 74.1325 7.39921 71.3754 5.70413" fill="#B4B4B4"/>
<path d="M69.6772 16.2289C69.1093 16.4827 68.7789 17.1627 68.7066 18.2792C68.4691 21.7811 69.4501 23.598 71.6392 23.7401C72.4756 23.7908 73.2603 23.4457 74.0038 22.7149C73.4152 23.1412 72.806 23.3442 72.1658 23.2935C69.9767 23.1514 68.9957 21.3243 69.2332 17.8225C69.2849 17.112 69.4397 16.5842 69.6876 16.2188" fill="#B4B4B4"/>
<path d="M91.6533 46.9857C90.0838 47.4729 88.7001 47.676 87.5023 47.6049C86.9653 47.5643 86.5833 47.2801 86.3561 46.7421C69.8966 49.4116 52.7659 50.1526 34.9744 48.9853C26.4555 48.4271 19.5062 47.3613 14.1367 45.7982C4.69881 43.0271 0.165736 38.8757 0.547795 33.3134C0.733661 30.5221 2.95373 25.4571 7.19768 21.6406C2.61298 25.5079 0.217366 30.857 0.0211735 33.76C-0.350559 39.3223 4.17219 43.4738 13.6101 46.2346C18.9795 47.8079 25.9289 48.8635 34.4478 49.4218C52.2496 50.5891 69.3803 49.8481 85.8295 47.1786C86.0567 47.7166 86.4387 48.0109 86.9757 48.0414C88.1735 48.1226 89.5572 47.9196 91.1267 47.4222C92.3348 47.0466 93.1712 46.5899 93.6462 46.0621C93.1609 46.4072 92.5 46.7117 91.6533 46.9756" fill="#B4B4B4"/>
<path d="M114.692 32.0931C114.32 32.0728 114.021 31.9409 113.763 31.6871C112.348 30.3777 109.509 29.586 105.254 29.3018C101.764 29.0683 100.102 29.251 96.9109 29.8296C94.2675 30.2661 92.667 30.8345 92.1094 31.5348C92.9045 31.0375 94.3294 30.6112 96.3843 30.2762C99.5647 29.6977 101.227 29.5251 104.728 29.7484C108.982 30.0326 111.822 30.8243 113.236 32.1337C113.484 32.3773 113.794 32.5194 114.155 32.5397C114.702 32.5803 115.074 32.3976 115.27 32.0221C115.105 32.083 114.909 32.1033 114.671 32.0931" fill="#B4B4B4"/>
<path d="M111.976 47.921C109.653 49.1188 105.368 49.6567 103.571 49.5349C102.435 49.4639 101.423 49.1492 100.525 48.5909C99.4304 47.9312 98.9245 47.0887 98.9864 46.0737C99.0277 45.5154 99.2549 44.9064 99.6886 44.2264C99.7712 44.0944 99.8641 43.9726 99.9467 43.8711C99.6679 44.0233 99.4098 44.2974 99.1619 44.6831C98.7283 45.3632 98.5011 45.9722 98.4598 46.5305C98.3875 47.5455 98.9038 48.3778 99.988 49.0477C100.886 49.5958 101.898 49.9105 103.034 49.9815C104.831 50.1033 109.116 49.5654 111.439 48.3676C112.544 47.8094 113.391 47.2308 114.031 46.6218C113.463 47.0684 112.782 47.4947 111.956 47.9109" fill="#B4B4B4"/>
<path d="M112.678 43.7558C112.74 43.8573 112.76 43.9588 112.76 44.0603C112.74 44.3648 112.585 44.6591 112.306 44.9636C112.915 44.517 113.256 44.0603 113.287 43.6137C113.287 43.5122 113.266 43.4107 113.204 43.3092C111.243 41.1066 108.103 39.4318 103.767 38.2949C100.442 37.554 97.1167 36.8029 93.7918 36.0619C90.7146 35.1687 89.2277 33.7984 89.3619 31.9714C89.4136 31.1492 89.775 30.4184 90.4152 29.7891C89.4342 30.5199 88.9076 31.3928 88.8353 32.418C88.7114 34.2552 90.188 35.6153 93.2651 36.5085C96.5901 37.2596 99.915 38.0006 103.24 38.7416C107.577 39.8784 110.716 41.5532 112.678 43.7558Z" fill="#B4B4B4"/>
<path d="M121.588 23.9024C121.825 23.9227 122.042 23.9531 122.259 23.9937C122.476 24.0445 122.651 24.0648 122.775 24.0749C123.302 24.1054 123.653 23.943 123.828 23.5776C123.674 23.6182 123.498 23.6385 123.302 23.6283C123.168 23.6283 122.992 23.5877 122.786 23.5471C122.569 23.5065 122.352 23.4659 122.114 23.4558C121.681 23.4253 121.247 23.0701 120.813 22.39C120.38 21.6998 120.173 21.1415 120.194 20.7254C120.214 20.4412 120.276 20.2179 120.38 20.0352C119.946 20.1976 119.708 20.5731 119.667 21.1821C119.636 21.6084 119.843 22.1667 120.276 22.8468C120.71 23.537 121.154 23.8922 121.588 23.9125" fill="#B4B4B4"/>
<path d="M121.949 45.7452C120.596 44.9332 120.059 40.4062 120.317 36.5491C120.338 36.1532 120.317 35.5645 120.266 34.7728C120.204 33.9811 120.183 33.4025 120.204 33.0473C120.225 32.7935 120.276 32.5905 120.369 32.418C119.956 32.5601 119.729 32.9153 119.688 33.504C119.667 33.8593 119.688 34.4379 119.739 35.2296C119.801 36.0213 119.822 38.8025 119.791 39.1983C119.522 43.0554 120.07 45.39 121.422 46.202C122.021 46.2426 122.465 46.0396 122.765 45.6133C122.527 45.7249 122.259 45.7757 121.939 45.7554" fill="#B4B4B4"/>
<path d="M129.855 46.559C128.988 46.4981 128.616 45.6759 128.72 44.0722C128.823 42.6004 128.761 40.7429 128.544 38.4896C128.286 35.9114 127.904 34.125 127.398 33.1404C127.222 32.8359 127.14 32.5212 127.16 32.1863C127.181 31.8818 127.253 31.6382 127.367 31.4453C126.933 31.6179 126.685 32.0036 126.644 32.6329C126.623 32.9577 126.696 33.2825 126.882 33.587C127.377 34.5716 127.759 36.358 128.017 38.9362C128.234 41.1895 128.286 43.047 128.193 44.5188C128.079 46.1225 128.461 46.9549 129.329 47.0056C129.804 47.0361 130.217 46.8229 130.578 46.3864C130.351 46.5082 130.114 46.5691 129.855 46.5488" fill="#B4B4B4"/>
<path d="M131.273 38.2247C132.264 36.2352 133.328 34.7228 134.433 33.6875C133.307 34.5807 132.233 35.9409 131.211 37.7882C131.232 37.9303 131.242 38.0724 131.263 38.2247" fill="#B4B4B4"/>
<path d="M152.218 45.8577C149.626 45.6851 147.271 44.6498 145.165 42.7314C143.967 41.6656 142.563 39.9299 140.952 37.5243C139.703 35.6973 138.835 34.7736 138.34 34.7432C137.575 34.6924 136.822 35.0375 136.078 35.7683C136.646 35.3522 137.235 35.1593 137.823 35.1898C138.319 35.2202 139.197 36.154 140.446 37.9709C142.057 40.3765 143.451 42.1122 144.659 43.178C146.765 45.0964 149.12 46.1317 151.712 46.3043C152.393 46.3449 152.858 46.1622 153.095 45.746C152.858 45.8374 152.579 45.878 152.228 45.8577" fill="#B4B4B4"/>
<path d="M164.41 40.3688C165.711 39.3233 166.413 38.2778 166.485 37.2323C166.547 36.2884 165.794 35.1718 164.203 33.9031C162.624 32.6343 161.323 31.9644 160.331 31.9035C158.999 31.8121 157.636 32.4211 156.242 33.7001C157.461 32.7358 158.648 32.279 159.805 32.3501C160.806 32.411 162.097 33.0809 163.677 34.3497C165.257 35.6185 166.021 36.735 165.959 37.679C165.897 38.5722 165.381 39.4654 164.41 40.3688Z" fill="#B4B4B4"/>
<path d="M165.708 42.3554C163.684 43.9287 161.753 44.6595 159.915 44.5377C158.118 44.4159 156.27 43.5633 154.38 41.9596C152.356 40.2848 151.407 38.5795 151.52 36.8438C151.634 35.1589 152.646 33.4537 154.535 31.7383C154.411 31.8398 154.287 31.9413 154.153 32.0529C152.16 33.8089 151.107 35.5548 150.993 37.2905C150.88 39.0261 151.83 40.7314 153.854 42.4062C155.754 44.0099 157.592 44.8727 159.388 44.9843C161.216 45.1061 163.147 44.3753 165.181 42.802C165.481 42.5686 165.749 42.3351 166.007 42.0915C165.904 42.1727 165.811 42.2641 165.698 42.3453" fill="#B4B4B4"/>
<path d="M88.0262 47.1465C87.4892 47.1059 87.1072 46.8217 86.88 46.2838C70.4205 48.9533 53.2898 49.6943 35.4879 48.527C26.969 47.9687 20.0197 46.9029 14.6502 45.3398C5.21235 42.5891 0.679278 38.4275 1.06134 32.8652C1.26785 29.8607 3.81835 24.2172 8.73349 20.3297C15.4763 14.9906 24.1397 10.2505 34.7135 6.11934C46.2475 1.59234 55.83 -0.427556 63.4505 0.0698052C67.9423 0.364162 71.5254 1.45024 74.2101 3.33818C77.4318 5.62198 78.898 8.8193 78.6193 12.9403C78.4953 14.8079 77.9274 16.8075 76.9052 18.9391C75.6557 21.6492 74.2411 22.9484 72.6819 22.8469C70.4824 22.7048 69.5118 20.8778 69.7493 17.3861C69.8526 15.8839 70.3998 15.1632 71.4014 15.2241C72.3618 15.285 72.7954 16.1579 72.6819 17.8225C72.6096 18.8985 72.6818 19.6293 72.8884 20.0048C73.6009 19.2943 74.2307 18.1372 74.778 16.5335C75.3046 15.0921 75.6144 13.8132 75.6867 12.6967C75.9035 9.42831 74.6438 6.94151 71.8868 5.24642C69.77 3.95734 66.8787 3.19607 63.2233 2.95247C55.9332 2.47541 46.7328 4.4344 35.6015 8.82945C25.3995 12.8895 17.0665 17.4673 10.6025 22.5627C6.36886 25.9326 4.16944 30.8351 4.0352 32.8956C3.73575 37.3414 8.09328 40.7215 17.1285 43.0256C22.0849 44.274 28.3321 45.1368 35.8493 45.6342C44.6367 46.2127 53.7235 46.2838 63.1097 45.8473C73.3737 45.3703 82.4192 44.3349 90.2462 42.7515C91.7022 42.4571 92.7244 42.3252 93.3233 42.3658C94.6244 42.447 95.2337 43.0459 95.1614 44.1624C95.0994 45.1469 94.1081 45.9285 92.1875 46.5274C90.618 47.0146 89.2343 47.2176 88.0365 47.1465" fill="#026CB6"/>
<path d="M74.9583 36.725C74.6692 37.1005 74.3801 37.4558 74.0703 37.7806C74.5969 37.3035 75.0616 36.7656 75.5159 36.1769C75.8464 35.7404 76.8686 33.5987 77.3643 29.904C77.4882 28.8383 77.7463 28.0364 78.1387 27.4883C77.4262 27.9653 76.9822 28.9499 76.8067 30.4521C76.311 34.1468 75.2991 36.2885 74.9583 36.725Z" fill="#B4B4B4"/>
<path d="M76.3271 28.1055C74.8402 29.293 72.0005 30.4908 69.5327 32.4092C69.068 32.7746 68.624 33.1806 68.2109 33.5967C68.4588 33.3734 68.7066 33.1603 68.9647 32.9573C71.7218 30.8257 74.9434 29.5773 76.2238 28.2476C76.2652 28.1968 76.2961 28.1562 76.3168 28.1055" fill="#B4B4B4"/>
<path d="M66.4806 42.6408C63.7236 42.59 62.3709 40.0727 62.4432 37.7686C62.4741 36.6623 63.7339 34.3277 65.6648 32.3281C63.4241 34.4191 61.9269 37.1089 61.8856 38.3168C61.8133 40.6209 63.166 43.1381 65.923 43.1889C69.661 43.2498 73.8223 42.0926 76.6929 39.0679C73.8636 41.6866 69.9811 42.7017 66.4806 42.6408Z" fill="#B4B4B4"/>
<path d="M83.4409 41.1103C82.3154 41.09 81.7681 40.8363 81.7784 40.3389C81.9333 35.2638 81.5822 31.6605 80.7459 29.5391C80.7149 30.1481 80.6529 30.7368 80.5703 31.3052C81.1279 33.4875 81.3448 36.6747 81.2208 40.887C81.2105 41.3844 81.7578 41.6381 82.8833 41.6584C83.854 41.6787 84.4219 41.4351 84.5871 40.9479C84.3083 41.0596 83.9262 41.1205 83.4409 41.1103Z" fill="#B4B4B4"/>
<path d="M76.0728 35.6176C76.4136 35.1811 77.4255 33.0394 77.9212 29.3447C78.1793 27.1117 79.026 26.0053 80.4613 26.0358C82.7537 26.0764 84.3645 27.4974 85.2835 30.309C85.8102 31.9533 86.0373 33.7601 85.9857 35.7495C85.9134 38.2262 85.8205 39.5863 85.7172 39.8401C85.552 40.3374 84.9841 40.5709 84.0135 40.5506C82.8879 40.5303 82.3407 40.2765 82.351 39.7792C82.4956 34.7041 82.1548 31.1007 81.3184 28.9793C80.8228 38.8352 73.3261 42.1848 67.048 42.0833C64.291 42.0325 62.9383 39.5153 63.0106 37.2112C63.0519 35.9018 64.8073 32.8466 67.3784 30.7049C71.199 27.5177 74.3897 26.0561 75.9593 26.0764C77.0125 26.0967 77.5288 26.3403 77.5185 26.8173C77.5185 26.9188 77.4668 27.0305 77.3636 27.132C76.0832 28.4617 72.8615 29.7102 70.1045 31.8417C68.0083 33.4657 66.3458 35.9525 66.3045 37.3939C66.2735 38.3581 67.2545 39.2717 67.9154 39.2818C72.4381 39.3732 74.3587 37.8608 76.0935 35.6074" fill="#DB0962"/>
<path d="M104.405 46.6905C105.304 46.7514 108.897 46.3961 110.715 45.6247C112.707 44.8026 113.74 43.9804 113.792 43.1582C113.792 43.0567 113.771 42.9552 113.709 42.8537C111.758 40.6511 108.608 38.9763 104.271 37.8395C100.946 37.0985 97.6213 36.3474 94.2964 35.6065C91.2193 34.7132 89.7427 33.3531 89.8666 31.5159C90.0215 29.1915 92.541 27.6182 97.4045 26.8265C100.678 26.2784 102.382 26.1261 105.841 26.3596C107.865 26.4916 109.919 26.8367 111.985 27.4051C115.072 28.2374 116.569 29.2727 116.487 30.511C116.435 31.3332 116.001 31.7088 115.206 31.658C114.835 31.6377 114.535 31.4956 114.277 31.252C112.862 29.9426 110.023 29.1509 105.768 28.8667C102.278 28.6333 100.616 28.816 97.4251 29.3945C94.1518 29.9325 92.479 30.6836 92.4067 31.6276C92.3654 32.2772 93.3154 32.8557 95.2464 33.343C95.6388 33.4343 96.8469 33.6576 98.8604 34.023C102.753 34.7031 105.779 35.4441 107.937 36.2459C111.262 37.4538 113.823 39.0981 115.619 41.1891C116.208 41.8488 116.476 42.5391 116.425 43.2597C116.322 44.7924 115 46.2033 112.48 47.4822C110.157 48.6799 105.872 49.2179 104.075 49.0961C102.939 49.025 101.927 48.7104 101.029 48.1521C99.9343 47.4924 99.4284 46.6499 99.5006 45.6349C99.542 45.0766 99.7691 44.4676 100.203 43.7875C100.636 43.1075 101.111 42.7827 101.648 42.8233C102.413 42.874 102.784 43.1278 102.753 43.5947C102.743 43.7571 102.65 44.0514 102.495 44.4778C102.33 44.9041 102.247 45.2086 102.227 45.4116C102.175 46.1728 102.898 46.5991 104.395 46.7006" fill="#652D89"/>
<path d="M123.827 23.1823C123.693 23.1823 123.518 23.1417 123.311 23.1011C123.094 23.0503 122.867 23.0199 122.64 23.0097C122.206 22.9793 121.773 22.624 121.339 21.944C120.905 21.2537 120.699 20.7056 120.73 20.2793C120.792 19.3962 121.267 18.9801 122.165 19.041C122.795 19.0816 123.445 19.4571 124.096 20.1778C124.746 20.8883 125.056 21.5582 125.015 22.1876C124.963 22.9082 124.571 23.2432 123.848 23.1924M122.495 45.3098C121.143 44.4977 120.606 39.9708 120.864 36.1137C120.895 35.7178 120.864 35.1291 120.812 34.3374C120.75 33.5457 120.73 32.9671 120.75 32.6118C120.802 31.7897 121.236 31.4141 122.031 31.4649C122.857 31.5156 123.301 32.4494 123.342 34.2562C123.363 34.5201 123.29 37.89 123.156 39.9809C124.034 40.3362 124.416 41.3918 124.292 43.1579C124.189 44.6602 123.59 45.3808 122.495 45.3098Z" fill="#FAA634"/>
<path d="M152.733 45.4125C150.131 45.2399 147.787 44.2046 145.681 42.2862C144.483 41.2204 143.079 39.4847 141.468 37.0791C140.218 35.2521 139.351 34.3284 138.845 34.298C136.584 34.1457 134.426 37.3735 132.371 43.9711C131.906 45.4531 131.235 46.1636 130.368 46.1027C129.5 46.0418 129.128 45.2196 129.232 43.6159C129.335 42.1441 129.273 40.2866 129.056 38.0332C128.798 35.4551 128.416 33.6686 127.92 32.6841C127.745 32.3796 127.662 32.0548 127.683 31.73C127.745 30.8164 128.22 30.3901 129.118 30.451C130.316 30.5322 131.204 32.9683 131.782 37.7693C133.951 33.4453 136.377 31.3747 139.072 31.5472C140.373 31.6386 141.809 32.7754 143.399 34.9882C145.598 38.0231 146.858 39.6979 147.168 40.0125C148.582 41.2915 150.565 42.1745 153.105 42.6719C153.962 42.8546 154.365 43.3418 154.313 44.1335C154.251 45.047 153.725 45.4734 152.723 45.4125" fill="#42C4DD"/>
<path d="M152.038 36.3976C152.151 34.6619 153.215 32.9161 155.197 31.1601C157.19 29.4041 159.07 28.582 160.825 28.6936C162.26 28.785 164.047 29.7898 166.184 31.7082C168.456 33.7281 169.54 35.4638 169.437 36.895C169.313 38.6611 168.249 40.3359 166.215 41.9092C164.181 43.4825 162.25 44.2133 160.422 44.0915C158.625 43.9697 156.777 43.1171 154.877 41.5133C152.853 39.8386 151.903 38.1333 152.017 36.3976M160.825 31.4545C159.431 31.3631 157.996 32.0229 156.529 33.4439C155.249 34.6721 154.557 35.7074 154.464 36.56C154.392 37.5446 155.146 38.6408 156.695 39.8589C158.15 41.0058 159.462 41.6148 160.629 41.696C161.827 41.7772 163.169 41.2596 164.645 40.1329C166.122 39.0164 166.897 37.8999 166.979 36.7833C167.041 35.8394 166.287 34.7228 164.697 33.4541C163.107 32.1853 161.816 31.5154 160.825 31.4443" fill="#7AC143"/>
<path d="M283.519 9.95557C284.18 8.8289 285.646 8.44319 286.792 9.0928C287.938 9.74242 288.331 11.1837 287.67 12.3206C287.009 13.4472 285.543 13.833 284.386 13.1833C283.24 12.5337 282.848 11.0924 283.508 9.96572" fill="#652D89"/>
<path d="M216.524 9.95557C217.185 8.8289 218.651 8.44319 219.797 9.0928C220.944 9.74242 221.336 11.1837 220.675 12.3206C220.014 13.4472 218.548 13.833 217.402 13.1833C216.256 12.5337 215.863 11.0924 216.524 9.96572" fill="#026CB6"/>
</g>
<defs>
<clipPath id="clip0_2061_9102">
<rect width="288" height="50" fill="white"/>
</clipPath>
</defs>
</svg>
